{"title":"The Empire Strikes Back - [despecialized] (1980)  x264 [=Faith=]","uid":12052223,"size":2626537966,"categoryP":"video","categoryS":"movies","magnet":"?xt=urn:btih:2fcab7445ebb9ae8d19a6458ae21aa3eb8344b2a&amp;dn=The+Empire+Strikes+Back+-+%5Bdespecialized%5D+%281980%29++x264+%5B%3DFaith%3D%5D&amp;tr=udp%3A%2F%2Ftracker.openbittorrent.com%3A80&amp;tr=udp%3A%2F%2Fopen.demonii.com%3A1337&amp;tr=udp%3A%2F%2Ftracker.coppersurfer.tk%3A6969&amp;tr=udp%3A%2F%2Fexodus.desync.com%3A6969","seeders":0,"leechers":4,"uploader":"Faithwyn","files":56,"time":1435027692,"description":" The Empire Strikes Back\n\n\nAfter the rebels have been brutally overpowered by the Empire on their newly\nestablished base, Luke Skywalker takes advanced Jedi training with Master Yoda,\nwhile his friends are pursued by Darth Vader as part of his plan to capture Luke.\n\n\nThe Film:\n\nDirected by: Irvin Kershner\nProduced by: Gary Kurtz\nScreenplay by:Leigh Brackett, Lawrence Kasdan\nStory by: George Lucas\nStarring:Mark Hamill, Harrison Ford, Carrie Fisher, Billy Dee Williams\n    Anthony Daniels, David Prowse, Kenny Baker, Peter Mayhew, Frank Oz\nMusic by: John Williams\nCinematography: Peter Suschitzky\nEdited by: Paul Hirsch\nProduction: Lucasfilm Ltd\nDistributed by: 20th Century Fox\nRelease dates:\n    May 17, 1980 (Washington, D.C.)\n    May 21, 1980 (United States)\nRunning time: 124 minutes\nDespecialized Edition v2.0 by: Harmy\nCountry: United States\nLanguage: English\nSubtitles: English, French, German, Italian, Spanish (more)\nIMDB Rating: 8.8\n\n\nGeneral:\n\nComplete name : The Empire Strikes Back (1980).m4v\nFormat : MPEG-4\nFormat profile : Base Media / Version 2\nCodec ID : mp42\nFile size : 2.41 GiB\nDuration : 2h 5mn\nOverall bit rate mode : Variable\nOverall bit rate : 2 762 Kbps\nMovie name : The Empire Strikes Back\nGenre : Sci-Fi\nRecorded date : 1980\nEncoded date : UTC 2015-06-22 05:36:36\nTagged date : UTC 2015-06-22 07:56:48\nWriting application : HandBrake 0.9.9\nComment : All Credits To Harmy:\n\n &lt;a href=&quot; http://originaltrilogy.com/forum/topic.cfm/Harmys-THE-EMPIRE-STRIKES-BACK-Despecialized-Edition-HD-MKV-and-AVCHD-v20-NOW-AVAILABLE/topic/12511/&quot; rel=&quot;nofollow&quot; target=&quot;_NEW&quot;&gt; http://originaltrilogy.com/forum/topic.cfm/Harmys-THE-EMPIRE-STRIKES-BACK-Despecialized-Edition-HD-MKV-and-AVCHD-v20-NOW-AVAILABLE/topic/12511/&lt;/a&gt;\n\n&quot;Despecialized Editions&quot; are high definition reconstructions of the theatrical \nversions of the STAR WARS films. The original shots are painstakingly restored \nusing various sources ranging from VHS, LaserDisc, DVD, BluRay to 35mm print scans. \n A gallery of all the changes can be found here:\n &lt;a href=&quot; https://plus.google.com/u/1/photos/109609428403596349302/albums/6044645069501365185&quot; rel=&quot;nofollow&quot; target=&quot;_NEW&quot;&gt; https://plus.google.com/u/1/photos/109609428403596349302/albums/6044645069501365185&lt;/a&gt;\n\nThe main goal is to get as close as possible to the original versions of the films as seen in cinemas\non opening day, while maintaining high picture and audio quality.\n\n\nVideo:\n\nID : 1\nFormat : AVC\nFormat/Info : Advanced Video Codec\nFormat profile : &lt;a class=&quot;__cf_email__&quot; href=&quot;/cdn-cgi/l/email-protection&quot; data-cfemail=&quot;f1b9989699b1bdc5dfc1&quot;&gt;[email&amp;#160;protected]&lt;/a&gt;&lt;script data-cfhash='f9e31' type=&quot;text/javascript&quot;&gt;\n/* &lt;![CDATA[ */!function(){try{var t=&quot;currentScript&quot;in document?document.currentScript:function(){for(var t=document.getElementsByTagName(&quot;script&quot;),e=t.length;e--;)if(t[e].getAttribute(&quot;data-cfhash&quot;))return t[e]}();if(t&amp;&amp;t.previousSibling){var e,r,n,i,c=t.previousSibling,a=c.getAttribute(&quot;data-cfemail&quot;);if(a){for(e=&quot;&quot;,r=parseInt(a.substr(0,2),16),n=2;a.length-n;n+=2)i=parseInt(a.substr(n,2),16)^r,e+=String.fromCharCode(i);e=document.createTextNode(e),c.parentNode.replaceChild(e,c)}t.parentNode.removeChild(t);}}catch(u){}}()/* ]]&gt; */&lt;/script&gt;\nFormat settings, CABAC : Yes\nFormat settings, ReFrames : 8 frames\nCodec ID : avc1\nCodec ID/Info : Advanced Video Coding\nDuration : 2h 5min\nBit rate : 2 116 Kbps\nWidth : 1 280 pixels\nHeight : 540 pixels\nDisplay aspect ratio : 2.40:1\nFrame rate mode : Variable\nFrame rate : 23.976 fps\nMinimum frame rate : 23.974 fps\nMaximum frame rate : 23.981 fps\nColor space : YUV\nChroma subsampling : 4:2:0\nBit depth : 8 bits\nScan type : Progressive\nBits/(Pixel*Frame) : 0.128\nStream size : 1.85 GiB (77%)\nWriting library : x264 core 130 r2273 b3065e6\nEncoding settings : (see .nfo file for details)\nEncoded date : UTC 2015-06-22 05:36:36\nTagged date : UTC 2015-06-22 07:56:48\n\n\nAudio 1:\n\nID : 2\nFormat : AAC\nFormat/Info : Advanced Audio Codec\nFormat profile : LC\nCodec ID : 40\nDuration : 2h 4min\nBit rate mode : Variable\nBit rate : 192 Kbps\nMaximum bit rate : 285 Kbps\nChannel(s) : 2 channels\nChannel positions : Front: L R\nSampling rate : 48.0 KHz\nCompression mode : Lossy\nStream size : 171 MiB (7%)\n\n\nAudio 2:\n\nID : 3\nFormat : AC-3\nFormat/Info : Audio Coding 3\nMode extension : CM (complete main)\nFormat settings, Endianness : Big\nCodec ID : ac-3\nDuration : 2h 4min\nBit rate mode : Constant\nBit rate : 448 Kbps\nChannels : 6 channels\nChannel positions : Front: L C R, Side: L R, LFE\nSampling rate : 48.0 KHz\nBit depth : 16 bits\nCompression mode : Lossy\nStream size : 400 MiB (16%)\n\n\nSubtitles:\n\nLanguages: English, French, German, Italian, Spanish\nAdditional Subs: Many more languages (see subtitle folder)","torrent":{"xt":"urn:btih:2fcab7445ebb9ae8d19a6458ae21aa3eb8344b2a","amp;dn":"The+Empire+Strikes+Back+-+%5Bdespecialized%5D+%281980%29++x264+%5B%3DFaith%3D%5D","amp;tr":["udp%3A%2F%2Ftracker.openbittorrent.com%3A80","udp%3A%2F%2Fopen.demonii.com%3A1337","udp%3A%2F%2Ftracker.coppersurfer.tk%3A6969","udp%3A%2F%2Fexodus.desync.com%3A6969"],"infoHash":"2fcab7445ebb9ae8d19a6458ae21aa3eb8344b2a","infoHashBuffer":{"type":"Buffer","data":[47,202,183,68,94,187,154,232,209,154,100,88,174,33,170,62,184,52,75,42]},"announce":[],"urlList":[]}}